# xmcd
#
# Track frame offsets: 
#        150
#        17950
#        35497
#        74645
#        90105
#        109767
#        129755
#        149112
#        164840
#        174912
#        186490
#        200357
#        210467
#        233740
#        249105
#        262780
#
# Disc length: 3804 seconds
#
# Revision: 0
# Processed by: cddbd v1.5.2PL0 Copyright (c) Steve Scherf et al.
# Submitted via: ExactAudioCopy v0.99pb3
#
DISCID=dc0eda10
DTITLE=Varios - The Best of Country
DYEAR=1998
DGENRE=Country
TTITLE0=Miles and miles of Texas
TTITLE1=Strawberry Stallion
TTITLE2=Don´t it make you wanna dance
TTITLE3=Feets
TTITLE4=Wish I was
TTITLE5=Black eyed
TTITLE6=Rosie strike back
TTITLE7=Ruben James
TTITLE8=Texas is a state of mind
TTITLE9=Pocket pocket ranger
TTITLE10=Treat her right
TTITLE11=Why do fools fall in love?
TTITLE12=So long
TTITLE13=Up against the wall redneck mother
TTITLE14=Under the X in Texas
TTITLE15=Going home
EXTD=
EXTT0=
EXTT1=
EXTT2=
EXTT3=
EXTT4=
EXTT5=
EXTT6=
EXTT7=
EXTT8=
EXTT9=
EXTT10=
EXTT11=
EXTT12=
EXTT13=
EXTT14=
EXTT15=
PLAYORDER=
